<?xml version="1.0" encoding="UTF-8"?>
<svg width="133px" height="39px" viewBox="0 0 133 39" version="1.1" xmlns="http://www.w3.org/2000/svg" xmlns:xlink="http://www.w3.org/1999/xlink">
    <!-- Generator: Sketch 54.1 (76490) - https://sketchapp.com -->
    <title>download-on-the-app-store-apple</title>
    <desc>Created with Sketch.</desc>
    <defs>
        <linearGradient x1="49.9984472%" y1="100.265508%" x2="49.9984472%" y2="-260.382794%" id="linearGradient-1">
            <stop stop-color="#1A1A1A" stop-opacity="0.1" offset="0%"></stop>
            <stop stop-color="#212121" stop-opacity="0.151" offset="12.3%"></stop>
            <stop stop-color="#353535" stop-opacity="0.227" offset="30.8%"></stop>
            <stop stop-color="#575757" stop-opacity="0.318" offset="53.2%"></stop>
            <stop stop-color="#858585" stop-opacity="0.421" offset="78.3%"></stop>
            <stop stop-color="#B3B3B3" stop-opacity="0.51" offset="100%"></stop>
        </linearGradient>
    </defs>
    <g id="Page-1" stroke="none" stroke-width="1" fill="none" fill-rule="evenodd">
        <g id="KFC-|-Mobile-Landingspage" transform="translate(-21.000000, -420.000000)" fill-rule="nonzero">
            <g id="download-on-the-app-store-apple" transform="translate(21.000000, 420.000000)">
                <path d="M131.873436,34.2652538 C131.873436,35.2528258 131.475878,36.1998928 130.76833,36.8978472 C130.060781,37.5958015 129.101284,37.98739 128.101182,37.9863585 L4.6528402,37.9863585 C2.56932174,37.9885062 0.878382008,36.322667 0.87566669,34.2652538 L0.87566669,4.59065794 C0.878380571,2.53245934 2.56852529,0.865229603 4.6528402,0.864695358 L128.100198,0.864695358 C129.100832,0.864695324 130.060469,1.25728197 130.767932,1.95606344 C131.475395,2.65484492 131.872713,3.60256057 131.872452,4.59065794 L131.873436,34.2652538 Z" id="Path" fill="#FFFFFF"></path>
                <path d="M128.101182,38.8520255 L4.6528402,38.8520255 C2.08644236,38.8514943 0.00488315314,36.7994924 0,34.2652538 L0,4.59162951 C0.00379657182,2.05615928 2.0851978,0.00214003246 4.6528402,0 L128.100198,0 C130.667392,0.00320771358 132.74816,2.05660266 132.753038,4.59162951 L132.753038,34.2652538 C132.755006,36.7952164 130.664229,38.8520255 128.101182,38.8520255 L128.101182,38.8520255 Z" id="Path" fill="#A6A6A6"></path>
                <path d="M131.873436,34.2652538 C131.873436,35.2528258 131.475878,36.1998928 130.76833,36.8978472 C130.060781,37.5958015 129.101284,37.98739 128.101182,37.9863585 L4.6528402,37.9863585 C2.56932174,37.9885062 0.878382008,36.322667 0.87566669,34.2652538 L0.87566669,4.59065794 C0.878380571,2.53245934 2.56852529,0.865229603 4.6528402,0.864695358 L128.100198,0.864695358 C129.100832,0.864695324 130.060469,1.25728197 130.767932,1.95606344 C131.475395,2.65484492 131.872713,3.60256057 131.872452,4.59065794 L131.873436,34.2652538 Z" id="Path" fill="#000000"></path>
                <path d="M29.6427933,19.2214977 C29.6142603,16.0901346 32.2392926,14.5667163 32.3593278,14.4957918 C30.8726622,12.3554279 28.5683798,12.062986 27.7586341,12.0396684 C25.8233123,11.8385539 23.9460403,13.1832037 22.9601774,13.1832037 C21.9546365,13.1832037 20.4364863,12.0590998 18.8002687,12.0921331 C16.694733,12.1241948 14.7249749,13.3279673 13.644658,15.1972638 C11.4151516,19.0087244 13.0779344,24.6098128 15.2139708,27.6906544 C16.282481,29.2004708 17.5310439,30.8841978 19.1652938,30.8249322 C20.7641234,30.7608087 21.3613478,29.8193595 23.2907662,29.8193595 C25.2024744,29.8193595 25.7632947,30.8249322 27.4300131,30.787041 C29.1459262,30.7608087 30.2262431,29.2713952 31.2573652,27.7489484 C32.4921537,26.0205293 32.9880368,24.3163993 33.0077147,24.2289582 C32.9683589,24.2153563 29.6762457,22.9736926 29.6427933,19.2214977 Z M26.4943288,10.0129779 C27.3542532,8.95105431 27.9426225,7.50633296 27.7792959,6.04023712 C26.5346685,6.09464492 24.9781464,6.89035896 24.0818179,7.92896496 C23.2887984,8.84418185 22.5803939,10.3442826 22.7633984,11.754999 C24.1615134,11.8579852 25.5970164,11.0583849 26.4943288,10.0129779 L26.4943288,10.0129779 Z" id="Shape" fill="#FFFFFF"></path>
                <path d="M128.101182,5.10636206e-16 L61.9785076,0 L87.8775799,38.8520255 L128.101182,38.8520255 C130.668057,38.8498879 132.749142,36.7970504 132.754022,34.2623391 L132.754022,4.59162951 C132.749685,2.05638103 130.6686,0.00267408839 128.101182,5.10636206e-16 Z" id="Path" fill="url(#linearGradient-1)"></path>
                <g id="Group" transform="translate(41.323597, 16.516653)" fill="#FFFFFF">
                    <path d="M11.477137,14.0916196 L9.24271111,14.0916196 L8.01874553,10.293761 L3.76438287,10.293761 L2.59846711,14.0916196 L0.423074918,14.0916196 L4.63906567,1.16199511 L7.24245225,1.16199511 L11.477137,14.0916196 L11.477137,14.0916196 Z M7.64978485,8.70038981 L6.54290279,5.32419164 C6.42581927,4.97928507 6.20542676,4.16705437 5.88270914,2.88847112 L5.84335334,2.88847112 C5.71347918,3.43837851 5.5058773,4.2506092 5.2215316,5.32419164 L4.13334356,8.70038981 L7.64978485,8.70038981 Z M22.2980159,9.31539224 C22.2980159,10.9009909 21.8621504,12.1543134 20.9894354,13.0743881 C20.2082226,13.8934198 19.2371181,14.3024498 18.0790735,14.3024498 C16.8285428,14.3024498 15.9292626,13.8623296 15.3832008,12.980146 L15.3832008,17.87199 L13.2855363,17.87199 L13.2855363,7.83277975 C13.2855363,6.83692273 13.2589711,5.81580496 13.2078086,4.76845485 L15.052612,4.76845485 L15.1696955,6.2462095 L15.2090513,6.2462095 C15.9086008,5.13279278 16.9702237,4.57608442 18.3949039,4.57608442 C19.5086732,4.57608442 20.4384541,5.01037524 21.1822788,5.87992843 C21.9251197,6.75142477 22.2980159,7.89593166 22.2980159,9.31539224 Z M20.1609957,9.39117453 C20.1609957,8.48373019 19.9543777,7.73562297 19.5391739,7.1458813 C19.0855983,6.53282201 18.4765672,6.22580658 17.7130645,6.22580658 C17.1955357,6.22580658 16.7252338,6.39680251 16.3051105,6.73393655 C15.8840034,7.07398528 15.6085128,7.51799177 15.4796225,8.06789916 C15.4220833,8.27355251 15.3893875,8.48520625 15.3822169,8.69844667 L15.3822169,10.2539267 C15.3822169,10.9311095 15.5927704,11.503363 16.0138776,11.9716587 C16.4349847,12.4380112 16.9820304,12.672159 17.6550147,12.672159 C18.4450825,12.672159 19.060017,12.3700015 19.4998181,11.7705441 C19.9406031,11.1691436 20.1609957,10.3763443 20.1609957,9.39117453 L20.1609957,9.39117453 Z M33.1572668,9.31539224 C33.1572668,10.9009909 32.7214012,12.1543134 31.8486862,13.0743881 C31.0664896,13.8934198 30.096369,14.3024498 28.9373405,14.3024498 C27.6868097,14.3024498 26.7875295,13.8623296 26.2414677,12.980146 L26.2414677,17.87199 L24.1438033,17.87199 L24.1438033,7.83277975 C24.1438033,6.83692273 24.1172381,5.81580496 24.0660755,4.76845485 L25.910879,4.76845485 L26.0279625,6.2462095 L26.0673183,6.2462095 C26.7658839,5.13279278 27.8275067,4.57608442 29.2531708,4.57608442 C30.3659562,4.57608442 31.2957372,5.01037524 32.0415297,5.87992843 C32.7833866,6.75142477 33.1572668,7.89593166 33.1572668,9.31539224 L33.1572668,9.31539224 Z M31.0192626,9.39117453 C31.0192626,8.48373019 30.8116607,7.73562297 30.396457,7.1458813 C29.9428813,6.53282201 29.335818,6.22580658 28.5723154,6.22580658 C28.0547865,6.22580658 27.5844846,6.39680251 27.1623936,6.73393655 C26.7412865,7.07398528 26.4667797,7.51799177 26.3378895,8.06789916 C26.2739363,8.32439306 26.2394999,8.53328014 26.2394999,8.69844667 L26.2394999,10.2539267 C26.2394999,10.9311095 26.4510374,11.503363 26.8701767,11.9716587 C27.2912839,12.4370396 27.8383296,12.672159 28.5132817,12.672159 C29.3043334,12.672159 29.9192678,12.3700015 30.3580851,11.7705441 C30.7988701,11.1691436 31.0192626,10.3763443 31.0192626,9.39117453 L31.0192626,9.39117453 Z M45.298533,10.464757 C45.298533,11.5655433 44.9089106,12.4603573 44.1345851,13.151142 C43.2825319,13.9050786 42.0930026,14.2830185 40.5679651,14.2830185 C39.1590273,14.2830185 38.0295156,14.0148658 37.1774624,13.4775888 L37.6625227,11.7511128 C38.5824647,12.2893613 39.592925,12.557514 40.6929198,12.557514 C41.4839715,12.557514 42.098906,12.3806887 42.5377232,12.0299527 C42.9775244,11.6782452 43.1998847,11.2080063 43.1998847,10.6211794 C43.1998847,10.0955612 43.0158963,9.65544097 42.6548067,9.29693245 C42.2917494,8.93939549 41.6915734,8.60614773 40.8483752,8.30010387 C38.5558995,7.45581143 37.4086778,6.22094874 37.4086778,4.59648735 C37.4086778,3.53553529 37.8140426,2.66695366 38.6228044,1.98782776 C39.4315662,1.30967342 40.5040119,0.97059625 41.8381738,0.97059625 C43.0296708,0.97059625 44.022421,1.17559706 44.810521,1.58462711 L44.2841371,3.27321198 C43.5422802,2.87681231 42.7049854,2.67861247 41.7683172,2.67861247 C41.0284281,2.67861247 40.4479299,2.85835252 40.0327262,3.21588948 C39.6834434,3.53553529 39.5063422,3.92513398 39.5063422,4.38760027 C39.5063422,4.89767337 39.7080408,5.32127694 40.10947,5.65355313 C40.4577689,5.95959699 41.0933651,6.29284476 42.0123232,6.65038171 C43.1398671,7.09924605 43.9683068,7.62194953 44.4986263,8.22237844 C45.0328813,8.82280735 45.298533,9.57188614 45.298533,10.464757 Z M52.2517201,6.32296336 L49.9395665,6.32296336 L49.9395665,10.8494978 C49.9395665,12.0008057 50.3468991,12.5750023 51.1635321,12.5750023 C51.5383961,12.5750023 51.849307,12.5439121 52.0952808,12.4788171 L52.1533306,14.0517854 C51.7400946,14.2043215 51.1960006,14.2810754 50.5220324,14.2810754 C49.6935927,14.2810754 49.0461897,14.0313824 48.5788395,13.5319966 C48.1134571,13.0326107 47.87929,12.1960908 47.87929,11.0185506 L47.87929,6.31907709 L46.5018368,6.31907709 L46.5018368,4.76456858 L47.87929,4.76456858 L47.87929,3.05752392 L49.9395665,2.44349306 L49.9395665,4.76456858 L52.2517201,4.76456858 L52.2517201,6.32296336 L52.2517201,6.32296336 Z M62.6632987,9.35328338 C62.6632987,10.7863459 62.2480949,11.9629145 61.4196552,12.8829893 C60.5528435,13.8302679 59.3997184,14.3024498 57.9622476,14.3024498 C56.5749554,14.3024498 55.472009,13.8487277 54.6494726,12.9422549 C53.8269363,12.033839 53.4156681,10.8893321 53.4156681,9.50873423 C53.4156681,8.06401289 53.8407108,6.88064329 54.6878445,5.96056856 C55.536946,5.03952227 56.6802322,4.57899913 58.117703,4.57899913 C59.5030274,4.57899913 60.6158128,5.03369286 61.4580271,5.94113721 C62.2628533,6.82137765 62.6632987,7.958112 62.6632987,9.35328338 Z M60.4888904,9.40089021 C60.4888904,8.54688209 60.3019503,7.81431996 59.9270862,7.20126067 C59.4872851,6.46092599 58.8575922,6.09075865 58.0419431,6.09075865 C57.2016966,6.09075865 56.5572453,6.46092599 56.1184281,7.20126067 C55.7425801,7.81431996 55.55564,8.55951248 55.55564,9.43975292 C55.55564,10.2947326 55.7425801,11.0292379 56.1184281,11.640354 C56.5720037,12.3806887 57.2046483,12.750856 58.024233,12.750856 C58.8261075,12.750856 59.4548166,12.3729162 59.9093761,11.6218942 C60.295063,10.9942614 60.4888904,10.2568415 60.4888904,9.40089021 Z M69.4846438,6.59014451 C69.2664714,6.55124979 69.0451643,6.53206299 68.8234662,6.53282201 C68.0855449,6.53282201 67.5148857,6.80680413 67.1134565,7.35865465 C66.7651576,7.84443856 66.5900242,8.45846942 66.5900242,9.19977567 L66.5900242,14.0916196 L64.4923598,14.0916196 L64.4923598,7.7045328 C64.4942305,6.72583688 64.4738915,5.74722245 64.4313583,4.76942642 L66.2584516,4.76942642 L66.3351954,6.55322493 L66.3932452,6.55322493 C66.6156055,5.94016564 66.9639044,5.44563762 67.4420774,5.07547028 C67.8797665,4.7520137 68.4115725,4.57685248 68.9582599,4.57608442 C69.1520872,4.57608442 69.3272206,4.58968637 69.482676,4.61397557 L69.4846438,6.59014451 L69.4846438,6.59014451 Z M78.8660841,8.98894545 C78.8714033,9.30383023 78.8457011,9.61847963 78.7893403,9.92845153 L72.4963469,9.92845153 C72.5199603,10.8494978 72.8249678,11.5548561 73.4094016,12.04064 C73.9397211,12.4739592 74.625496,12.6915904 75.4677102,12.6915904 C76.399459,12.6915904 77.2495444,12.5458552 78.0140309,12.2514702 L78.3426519,13.688419 C77.4492751,14.0731598 76.3945395,14.2645587 75.1774612,14.2645587 C73.7134252,14.2645587 72.5642356,13.839012 71.7279247,12.9898617 C70.8935817,12.1397399 70.4754262,10.9971761 70.4754262,9.56605673 C70.4754262,8.16116967 70.8640648,6.99043045 71.6423259,6.05675378 C72.4569911,5.0599252 73.5579697,4.5615109 74.9432941,4.5615109 C76.3040211,4.5615109 77.3341593,5.0599252 78.0337088,6.05675378 C78.5876418,6.84663841 78.8660841,7.82597877 78.8660841,8.98894545 L78.8660841,8.98894545 Z M76.8658253,8.45166845 C76.8805837,7.83666602 76.7428384,7.30716156 76.4584927,6.85926879 C76.0954353,6.28215751 75.5365829,5.99457344 74.7878387,5.99457344 C74.1020638,5.99457344 73.5432113,6.27535654 73.1181686,6.83886587 C72.7688858,7.28675863 72.5612839,7.82500721 72.4973308,8.44972531 L76.8658253,8.45166845 Z" id="Shape"></path>
                </g>
                <g id="Group" transform="translate(42.307492, 5.829407)" fill="#FFFFFF">
                    <path d="M2.17539219,7.27801452 C1.59194236,7.27801452 1.08720415,7.24983906 0.667080917,7.20223223 L0.667080917,0.951164894 C1.25467156,0.861533028 1.84845393,0.817354291 2.44301168,0.81903167 C4.84863533,0.81903167 5.95650128,1.98782776 5.95650128,3.89307225 C5.95650128,6.09075865 4.64792072,7.27801452 2.17539219,7.27801452 Z M2.52762666,1.62057512 C2.20294126,1.62057512 1.92646672,1.64000648 1.69721915,1.68664173 L1.69721915,6.43857993 C1.82118994,6.45801129 2.05929256,6.4667554 2.39381692,6.4667554 C3.97001696,6.4667554 4.86732934,5.58068555 4.86732934,3.92124771 C4.86732934,2.44154993 4.05561584,1.62057512 2.52762666,1.62057512 L2.52762666,1.62057512 Z M9.40898939,7.32562135 C8.05318186,7.32562135 7.17456349,6.32587806 7.17456349,4.96859782 C7.17456349,3.55399508 8.07187587,2.54550768 9.48573321,2.54550768 C10.8218628,2.54550768 11.7201591,3.49764414 11.7201591,4.8937871 C11.7201591,6.32587806 10.7943138,7.32562135 9.40898939,7.32562135 Z M9.44834519,3.28972863 C8.70353656,3.28972863 8.22634741,3.97759865 8.22634741,4.93945079 C8.22634741,5.88284314 8.71337551,6.57071315 9.43850624,6.57071315 C10.163637,6.57071315 10.6506651,5.83523631 10.6506651,4.92001943 C10.6506651,3.98731432 10.1734759,3.28972863 9.44834519,3.28972863 Z M19.4516073,2.63974976 L18.0003619,7.22166359 L17.0548387,7.22166359 L16.4536787,5.2318927 C16.3042042,4.74518138 16.1797466,4.25131831 16.0807824,3.75219491 L16.0611045,3.75219491 C15.9853446,4.25158077 15.8416959,4.7519382 15.6891922,5.2318927 L15.0496603,7.22166359 L14.0942981,7.22166359 L12.7286516,2.63974976 L13.7883067,2.63974976 L14.3137067,4.81800481 C14.4376775,5.33682202 14.5419704,5.8264922 14.6285532,6.28895849 L14.6482311,6.28895849 C14.723991,5.90324606 14.8479618,5.42134842 15.0299824,4.82772049 L15.6891922,2.64072133 L16.5294386,2.64072133 L17.1601154,4.78108523 C17.3126192,5.29990245 17.43659,5.80900398 17.5330117,6.28993005 L17.5605608,6.28993005 C17.6274656,5.81871966 17.7327424,5.31836224 17.8754072,4.78108523 L18.4391791,2.64072133 L19.4516073,2.63974976 L19.4516073,2.63974976 Z M24.794158,7.22166359 L23.7630358,7.22166359 L23.7630358,4.59065794 C23.7630358,3.78037038 23.4481894,3.37425503 22.8273515,3.37425503 C22.2163526,3.37425503 21.7962294,3.89307225 21.7962294,4.49641586 L21.7962294,7.22166359 L20.7651073,7.22166359 L20.7651073,3.94942318 C20.7651073,3.5442794 20.7552683,3.10998859 20.7267354,2.63877819 L21.6338867,2.63877819 L21.6820976,3.34607956 L21.7106305,3.34607956 C21.988089,2.85640938 22.550877,2.54550768 23.1815538,2.54550768 C24.15561,2.54550768 24.7951419,3.28098452 24.7951419,4.47795607 L24.794158,7.22166359 L24.794158,7.22166359 Z M27.637615,7.22166359 L26.6055089,7.22166359 L26.6055089,0.537277003 L27.637615,0.537277003 L27.637615,7.22166359 Z M31.3970784,7.32562135 C30.0422547,7.32562135 29.1626525,6.32587806 29.1626525,4.96859782 C29.1626525,3.55399508 30.0599648,2.54550768 31.4728383,2.54550768 C32.8099518,2.54550768 33.7072642,3.49764414 33.7072642,4.8937871 C33.7082481,6.32587806 32.7814188,7.32562135 31.3970784,7.32562135 Z M31.4354503,3.28972863 C30.6906416,3.28972863 30.2134525,3.97759865 30.2134525,4.93945079 C30.2134525,5.88284314 30.7014645,6.57071315 31.4246274,6.57071315 C32.150742,6.57071315 32.6367863,5.83523631 32.6367863,4.92001943 C32.6377702,3.98731432 32.1615649,3.28972863 31.4354503,3.28972863 L31.4354503,3.28972863 Z M37.772719,7.22166359 L37.6979429,6.69410227 L37.6703939,6.69410227 C37.3555474,7.1186774 36.8960684,7.32562135 36.3136025,7.32562135 C35.4822111,7.32562135 34.891874,6.7504532 34.891874,5.97708522 C34.891874,4.84618028 35.8846242,4.26129645 37.603489,4.26129645 L37.603489,4.17677005 C37.603489,3.57342643 37.2797875,3.27126884 36.6402557,3.27126884 C36.1827444,3.27126884 35.7813152,3.38494228 35.4280968,3.61131758 L35.2185271,2.94190735 C35.6475054,2.67764091 36.1827444,2.54550768 36.8114534,2.54550768 C38.0236122,2.54550768 38.635595,3.17702676 38.635595,4.4410365 L38.635595,6.1286498 C38.635595,6.59111608 38.6562568,6.9496246 38.7024999,7.22263516 L37.772719,7.22166359 L37.772719,7.22166359 Z M37.6310381,4.93945079 C36.4857841,4.93945079 35.9111893,5.21343291 35.9111893,5.86341178 C35.9111893,6.34433785 36.2073418,6.57945726 36.61861,6.57945726 C37.1430261,6.57945726 37.6310381,6.18402916 37.6310381,5.64675216 L37.6310381,4.93945079 L37.6310381,4.93945079 Z M43.6426375,7.22166359 L43.5944266,6.48618675 L43.5658937,6.48618675 C43.2697412,7.04192354 42.7718903,7.32562135 42.0762764,7.32562135 C40.9575876,7.32562135 40.1291479,6.35405353 40.1291479,4.98705761 C40.1291479,3.55399508 40.9880884,2.54453612 42.1608914,2.54453612 C42.7817292,2.54453612 43.2215304,2.75148006 43.4694719,3.16731109 L43.4901337,3.16731109 L43.4901337,0.537277003 L44.5222398,0.537277003 L44.5222398,5.98680089 C44.5222398,6.42983582 44.5330626,6.84469528 44.5606117,7.22166359 L43.6426375,7.22166359 Z M43.4901337,4.5255629 C43.4901337,3.88432814 43.0601716,3.33733545 42.4039135,3.33733545 C41.6394269,3.33733545 41.1720767,4.00674568 41.1720767,4.94916646 C41.1720767,5.87312746 41.6571371,6.50561811 42.3832517,6.50561811 C43.0316386,6.50561811 43.4901337,5.94890975 43.4901337,5.2892152 L43.4901337,4.5255629 Z M51.0661264,7.32562135 C49.7113028,7.32562135 48.8326844,6.32587806 48.8326844,4.96859782 C48.8326844,3.55399508 49.7299968,2.54550768 51.1428703,2.54550768 C52.4799838,2.54550768 53.3772962,3.49764414 53.3772962,4.8937871 C53.3782801,6.32587806 52.4524347,7.32562135 51.0661264,7.32562135 Z M51.1044984,3.28972863 C50.3606736,3.28972863 49.8834845,3.97759865 49.8834845,4.93945079 C49.8834845,5.88284314 50.3705126,6.57071315 51.0946594,6.57071315 C51.820774,6.57071315 52.3068182,5.83523631 52.3068182,4.92001943 C52.308786,3.98731432 51.8315969,3.28972863 51.1044984,3.28972863 Z M58.9225293,7.22166359 L57.8904233,7.22166359 L57.8904233,4.59065794 C57.8904233,3.78037038 57.5755768,3.37425503 56.954739,3.37425503 C56.3437401,3.37425503 55.9246007,3.89307225 55.9246007,4.49641586 L55.9246007,7.22166359 L54.8924947,7.22166359 L54.8924947,3.94942318 C54.8924947,3.5442794 54.8826558,3.10998859 54.8541228,2.63877819 L55.7612741,2.63877819 L55.809485,3.34607956 L55.838018,3.34607956 C56.1144925,2.85640938 56.6782644,2.54453612 57.3079573,2.54453612 C58.2820135,2.54453612 58.9225293,3.28001295 58.9225293,4.4769845 L58.9225293,7.22166359 Z M65.859974,3.40340207 L64.7255429,3.40340207 L64.7255429,5.62829237 C64.7255429,6.19471641 64.9242897,6.47744264 65.325719,6.47744264 C65.5077396,6.47744264 65.6602433,6.45801129 65.7832302,6.42983582 L65.8117632,7.2032038 C65.6120324,7.27898609 65.344413,7.31687724 65.0118564,7.31687724 C64.199159,7.31687724 63.7131148,6.87384231 63.7131148,5.71379034 L63.7131148,3.40340207 L63.0361949,3.40340207 L63.0361949,2.63974976 L63.7131148,2.63974976 L63.7131148,1.80031517 L64.7255429,1.49815758 L64.7255429,2.63877819 L65.859974,2.63877819 L65.859974,3.40340207 L65.859974,3.40340207 Z M71.3186244,7.22166359 L70.2884861,7.22166359 L70.2884861,4.6100893 C70.2884861,3.79008606 69.9746236,3.3752266 69.3528018,3.3752266 C68.8185468,3.3752266 68.3206958,3.73373512 68.3206958,4.45949628 L68.3206958,7.22166359 L67.2905576,7.22166359 L67.2905576,0.537277003 L68.3206958,0.537277003 L68.3206958,3.28972863 L68.3413576,3.28972863 C68.666043,2.79034277 69.1363449,2.54453612 69.7365209,2.54453612 C70.7184483,2.54453612 71.3186244,3.29847274 71.3186244,4.49641586 L71.3186244,7.22166359 L71.3186244,7.22166359 Z M76.9110844,5.17554177 L73.8167342,5.17554177 C73.8364121,6.04315183 74.4178941,6.53282201 75.2788024,6.53282201 C75.7363136,6.53282201 76.1574207,6.45703972 76.5293331,6.31616238 L76.689708,7.02346376 C76.2508908,7.21194791 75.7343458,7.30618999 75.1331859,7.30618999 C73.6819405,7.30618999 72.8230001,6.40068878 72.8230001,4.99677329 C72.8230001,3.59188622 73.7026023,2.535792 75.0170863,2.535792 C76.2026799,2.535792 76.9465047,3.40340207 76.9465047,4.71404705 C76.9531722,4.86871971 76.9412828,5.02362815 76.9110844,5.17554177 L76.9110844,5.17554177 Z M75.9655612,4.44978061 C75.9655612,3.74247923 75.6044717,3.24309338 74.9452619,3.24309338 C74.352957,3.24309338 73.8846229,3.75219491 73.8177181,4.44978061 L75.9655612,4.44978061 L75.9655612,4.44978061 Z" id="Shape"></path>
                </g>
            </g>
        </g>
    </g>
</svg>